<svg width="34" height="31" viewBox="0 0 34 31" fill="none" xmlns="http://www.w3.org/2000/svg">
<g clip-path="url(#clip0_11_87)">
<path d="M3.875 2.125C1.80664 2.125 0.125 3.80664 0.125 5.875V24.625C0.125 26.6934 1.80664 28.375 3.875 28.375H30.125C32.1934 28.375 33.875 26.6934 33.875 24.625V5.875C33.875 3.80664 32.1934 2.125 30.125 2.125H3.875ZM8.5625 17.125H12.3125C14.9023 17.125 17 19.2227 17 21.8125C17 22.3281 16.5781 22.75 16.0625 22.75H4.8125C4.29687 22.75 3.875 22.3281 3.875 21.8125C3.875 19.2227 5.97266 17.125 8.5625 17.125ZM6.6875 11.5C6.6875 10.5054 7.08259 9.55161 7.78585 8.84835C8.48911 8.14509 9.44294 7.75 10.4375 7.75C11.4321 7.75 12.3859 8.14509 13.0892 8.84835C13.7924 9.55161 14.1875 10.5054 14.1875 11.5C14.1875 12.4946 13.7924 13.4484 13.0892 14.1517C12.3859 14.8549 11.4321 15.25 10.4375 15.25C9.44294 15.25 8.48911 14.8549 7.78585 14.1517C7.08259 13.4484 6.6875 12.4946 6.6875 11.5ZM21.6875 9.625H29.1875C29.7031 9.625 30.125 10.0469 30.125 10.5625C30.125 11.0781 29.7031 11.5 29.1875 11.5H21.6875C21.1719 11.5 20.75 11.0781 20.75 10.5625C20.75 10.0469 21.1719 9.625 21.6875 9.625ZM21.6875 13.375H29.1875C29.7031 13.375 30.125 13.7969 30.125 14.3125C30.125 14.8281 29.7031 15.25 29.1875 15.25H21.6875C21.1719 15.25 20.75 14.8281 20.75 14.3125C20.75 13.7969 21.1719 13.375 21.6875 13.375ZM21.6875 17.125H29.1875C29.7031 17.125 30.125 17.5469 30.125 18.0625C30.125 18.5781 29.7031 19 29.1875 19H21.6875C21.1719 19 20.75 18.5781 20.75 18.0625C20.75 17.5469 21.1719 17.125 21.6875 17.125Z" fill="#15DAD5"/>
</g>
<defs>
<clipPath id="clip0_11_87">
<path d="M0.125 0.25H33.875V30.25H0.125V0.25Z" fill="white"/>
</clipPath>
</defs>
</svg>
