<svg width="34" height="31" viewBox="0 0 34 31" fill="none" xmlns="http://www.w3.org/2000/svg">
<g clip-path="url(#clip0_11_90)">
<path d="M0.125 4C0.125 1.93164 1.80664 0.25 3.875 0.25H13.25V7.75C13.25 8.78711 14.0879 9.625 15.125 9.625H22.625V11.8867C18.2949 13.1113 15.125 17.0898 15.125 21.8125C15.125 25.2754 16.8301 28.334 19.4434 30.209C19.2559 30.2383 19.0684 30.25 18.875 30.25H3.875C1.80664 30.25 0.125 28.5684 0.125 26.5V4ZM22.625 7.75H15.125V0.25L22.625 7.75ZM17 21.8125C17 19.5747 17.8889 17.4286 19.4713 15.8463C21.0536 14.2639 23.1997 13.375 25.4375 13.375C27.6753 13.375 29.8214 14.2639 31.4037 15.8463C32.9861 17.4286 33.875 19.5747 33.875 21.8125C33.875 24.0503 32.9861 26.1964 31.4037 27.7787C29.8214 29.3611 27.6753 30.25 25.4375 30.25C23.1997 30.25 21.0536 29.3611 19.4713 27.7787C17.8889 26.1964 17 24.0503 17 21.8125ZM29.3809 19.2754C29.0176 18.9121 28.4199 18.9121 28.0566 19.2754L24.5 22.832L22.8184 21.1504C22.4551 20.7871 21.8574 20.7871 21.4941 21.1504C21.1309 21.5137 21.1309 22.1113 21.4941 22.4746L23.8379 24.8184C24.2012 25.1816 24.7988 25.1816 25.1621 24.8184L29.3809 20.5996C29.7441 20.2363 29.7441 19.6387 29.3809 19.2754Z" fill="#15DAD5"/>
</g>
<defs>
<clipPath id="clip0_11_90">
<path d="M0.125 0.25H33.875V30.25H0.125V0.25Z" fill="white"/>
</clipPath>
</defs>
</svg>
