<svg width="38" height="31" viewBox="0 0 38 31" fill="none" xmlns="http://www.w3.org/2000/svg">
<g clip-path="url(#clip0_11_93)">
<path d="M19.1992 5.24219L13.5273 9.83594C12.584 10.5977 12.4023 11.9688 13.1172 12.9473C13.873 13.9902 15.3437 14.1953 16.3574 13.4043L22.1758 8.88086C22.5859 8.56445 23.1719 8.63477 23.4941 9.04492C23.8164 9.45508 23.7402 10.041 23.3301 10.3633L22.1055 11.3125L32.4883 20.875H34.9375C36.4902 20.875 37.75 19.6152 37.75 18.0625V10.5625C37.75 9.00977 36.4902 7.75 34.9375 7.75H30.4844H30.25H30.209L29.9805 7.60352L25.7266 4.87891C24.8301 4.30469 23.7812 4 22.7148 4C21.4375 4 20.1953 4.43945 19.1992 5.24219ZM20.5352 12.5313L17.5059 14.8867C15.6602 16.3281 12.9824 15.9531 11.5996 14.0547C10.2988 12.2676 10.627 9.77148 12.3437 8.38281L17.2188 4.43945C16.5391 4.15234 15.8066 4.00586 15.0625 4.00586C13.9609 4 12.8887 4.32813 11.9688 4.9375L7.75 7.75H3.0625C1.50977 7.75 0.25 9.00977 0.25 10.5625V18.0625C0.25 19.6152 1.50977 20.875 3.0625 20.875H9.40234L14.7578 25.7617C15.9063 26.8105 17.6816 26.7285 18.7305 25.5801C19.0527 25.2227 19.2695 24.8066 19.3809 24.373L20.377 25.2871C21.5195 26.3359 23.3008 26.2598 24.3496 25.1172C24.6133 24.8301 24.8066 24.4961 24.9297 24.1504C26.0664 24.9121 27.6133 24.7539 28.5684 23.7109C29.6172 22.5684 29.541 20.7871 28.3984 19.7383L20.5352 12.5313Z" fill="#15DAD5"/>
</g>
<defs>
<clipPath id="clip0_11_93">
<path d="M0.25 0.25H37.75V30.25H0.25V0.25Z" fill="white"/>
</clipPath>
</defs>
</svg>
